<svg 
 xmlns="http://www.w3.org/2000/svg"
 xmlns:xlink="http://www.w3.org/1999/xlink"
 width="204px" height="105px">
<defs>
<linearGradient id="PSgrad_0" x1="100%" x2="0%" y1="0%" y2="0%">
  <stop offset="0%" stop-color="rgb(146,41,163)" stop-opacity="1" />
  <stop offset="100%" stop-color="rgb(255,100,0)" stop-opacity="1" />
</linearGradient>

</defs>
<path fill-rule="evenodd"  fill="url(#PSgrad_0)"
 d="M203.606,71.095 C202.716,75.876 199.816,79.960 195.924,82.809 C191.793,85.834 186.689,87.370 181.642,87.906 C174.065,88.710 166.657,86.782 159.856,83.428 C155.690,81.375 151.479,77.450 152.607,72.323 C153.218,69.547 154.923,66.931 156.188,64.416 C157.497,61.813 158.806,59.211 160.115,56.608 C162.807,51.258 165.503,45.911 168.199,40.564 C168.723,39.526 169.250,38.486 169.781,37.447 C168.390,36.887 166.220,35.949 166.418,35.662 C170.938,29.085 175.652,22.672 179.787,15.844 C179.993,15.504 181.191,15.892 181.499,15.961 C182.796,16.252 184.064,16.681 185.317,17.123 C186.557,17.559 187.828,18.054 189.004,18.648 C189.450,18.873 190.149,19.157 190.401,19.643 C196.122,30.694 200.109,42.625 202.475,54.834 C203.498,60.112 204.604,65.731 203.606,71.095 ZM192.682,60.083 C192.299,54.921 191.223,49.756 190.030,44.728 C188.909,40.001 187.522,35.348 185.913,30.771 C183.856,35.765 181.446,40.645 179.060,45.477 C176.269,51.131 173.475,56.784 170.677,62.436 C169.458,64.900 168.238,67.364 167.019,69.828 C165.913,72.062 164.455,74.378 164.056,76.873 C163.710,79.033 164.354,81.224 165.666,82.954 C165.903,83.266 166.157,83.567 166.428,83.854 C170.529,84.001 174.882,83.212 178.646,81.873 C183.029,80.315 187.038,77.514 189.672,73.646 C192.412,69.621 193.036,64.847 192.682,60.083 ZM162.677,19.778 C161.828,21.305 160.982,22.834 160.116,24.352 C158.284,27.565 156.429,30.738 154.420,33.845 C154.179,34.218 152.887,33.794 152.539,33.716 C151.113,33.396 149.721,32.924 148.344,32.440 C147.828,32.258 142.442,30.360 142.757,29.669 C145.137,24.444 147.869,19.406 150.599,14.356 C151.461,12.763 152.578,11.015 152.236,9.272 C147.460,9.047 142.684,8.822 137.908,8.598 C132.946,8.364 127.963,7.974 122.996,7.911 C119.941,7.873 115.840,8.318 114.927,11.846 C114.355,14.059 115.203,16.591 115.628,18.765 C116.123,21.299 116.626,23.831 117.135,26.362 L123.198,56.520 C124.218,61.595 125.253,66.668 126.286,71.740 C126.422,72.405 126.555,73.069 126.689,73.734 C128.786,70.362 130.882,66.989 132.979,63.616 C136.136,58.537 139.293,53.458 142.451,48.380 C142.157,48.238 141.867,48.093 141.583,47.940 C136.632,45.278 131.686,42.610 126.740,39.940 C124.812,38.900 127.393,39.247 128.084,39.383 C129.860,39.735 131.636,40.084 133.412,40.436 C134.641,40.575 135.849,40.830 137.043,41.152 C140.621,41.860 144.198,42.568 147.776,43.272 C148.769,43.467 159.004,46.903 158.502,47.709 C154.110,54.760 149.718,61.811 145.326,68.862 C143.083,72.463 140.848,76.068 138.597,79.663 C136.849,82.455 134.727,85.118 131.088,84.749 C129.375,84.575 127.658,84.025 126.032,83.499 C123.837,82.788 121.621,81.976 119.555,80.932 C118.150,80.222 116.953,79.433 116.204,78.022 C115.543,76.778 115.275,75.399 115.005,74.029 C114.661,72.285 114.320,70.539 113.978,68.794 C112.538,61.460 111.092,54.127 109.634,46.796 C108.174,39.460 106.714,32.123 105.255,24.786 C104.541,21.201 103.827,17.616 103.094,14.034 C102.536,11.310 101.265,7.710 103.438,5.366 C105.019,3.661 107.686,3.245 109.892,3.165 C113.230,3.043 116.621,3.396 119.956,3.551 C127.414,3.897 134.872,4.244 142.331,4.590 C144.144,4.675 145.982,4.699 147.777,4.991 C151.014,5.517 154.193,6.607 157.229,7.818 C160.092,8.959 165.458,10.945 164.948,14.992 C164.735,16.682 163.486,18.322 162.677,19.778 ZM105.786,65.977 C107.320,70.877 109.469,76.318 107.731,81.455 C106.198,85.986 101.750,87.691 97.362,88.269 C95.014,88.578 92.603,88.745 90.235,88.741 C86.565,88.736 83.076,87.876 79.614,86.697 C76.051,85.485 72.053,84.119 69.260,81.468 C67.656,79.944 66.503,77.968 65.659,75.938 C61.856,66.785 62.980,55.391 67.388,46.667 C71.168,39.184 77.519,32.907 85.209,29.531 C84.707,27.717 84.231,25.898 83.807,24.067 C83.756,23.849 85.321,24.147 85.471,24.181 C86.732,24.463 87.964,24.881 89.181,25.310 C90.387,25.734 91.622,26.215 92.765,26.792 C93.093,26.957 93.963,27.308 94.123,27.760 C94.488,28.791 94.837,29.828 95.179,30.867 C95.701,31.084 96.218,31.313 96.726,31.564 C96.420,31.413 98.398,32.451 98.152,32.580 C97.456,32.946 96.771,33.328 96.095,33.722 C97.474,38.135 98.725,42.594 100.049,47.017 C101.943,53.343 103.814,59.674 105.786,65.977 ZM96.566,70.480 C96.261,67.924 95.504,65.440 94.822,62.966 C94.123,60.429 93.434,57.888 92.714,55.357 C91.237,50.164 89.698,44.989 88.196,39.803 C88.170,39.713 88.143,39.622 88.117,39.532 C84.125,43.168 80.866,47.537 78.710,52.695 C75.195,61.101 74.378,71.322 77.716,79.934 C78.306,81.456 79.078,82.906 80.104,84.170 C84.050,84.084 88.655,83.966 92.072,81.866 C95.985,79.461 97.082,74.785 96.566,70.480 ZM90.484,19.250 C89.154,18.952 87.854,18.511 86.570,18.059 C85.298,17.612 83.996,17.105 82.790,16.495 C82.357,16.277 81.596,15.970 81.358,15.475 C80.417,13.518 79.354,11.650 78.106,9.871 C76.909,8.165 75.602,6.534 74.073,5.112 C73.821,4.877 73.562,4.651 73.300,4.428 C72.453,4.516 71.598,4.682 70.952,4.862 C69.065,5.387 67.393,6.511 66.128,7.999 C63.607,10.964 62.733,14.927 62.243,18.688 C61.601,23.618 61.349,28.604 61.077,33.565 C60.392,46.033 59.956,59.458 55.854,71.446 C57.107,73.814 58.355,76.171 59.911,78.385 C60.082,78.630 60.259,78.871 60.434,79.112 C60.630,79.315 60.828,79.516 61.023,79.720 C64.004,82.833 66.925,86.013 70.116,88.916 C71.628,90.292 73.198,91.623 74.867,92.808 C75.703,93.401 76.574,93.953 77.460,94.470 C77.645,94.577 77.830,94.684 78.017,94.787 C78.038,94.798 78.051,94.806 78.068,94.816 C78.101,94.832 78.147,94.854 78.214,94.888 C78.406,94.984 78.601,95.077 78.792,95.175 C78.740,95.149 78.696,95.126 78.654,95.104 C78.682,95.117 78.709,95.130 78.731,95.140 C79.222,95.356 81.066,95.935 81.443,96.566 C81.802,96.724 82.159,96.889 82.523,97.037 C82.731,97.116 82.954,97.200 83.032,97.232 C83.309,97.342 83.440,97.395 83.481,97.410 C83.483,97.411 83.486,97.412 83.488,97.413 C83.374,97.365 82.027,96.822 83.181,97.281 C83.387,97.363 83.511,97.414 83.579,97.442 C83.803,97.512 84.029,97.573 84.237,97.624 C82.736,97.259 84.299,97.637 84.551,97.709 C84.935,97.818 85.320,97.921 85.705,98.026 C85.731,98.033 85.754,98.039 85.775,98.045 C85.843,98.060 85.923,98.078 86.018,98.100 C89.342,98.861 92.722,99.456 96.332,99.828 C111.749,101.419 127.332,98.835 142.330,95.408 C143.221,95.204 144.518,95.767 145.388,96.004 C147.048,96.456 148.674,97.046 150.277,97.671 C151.474,98.137 152.829,98.662 153.925,99.360 C154.148,99.501 155.052,99.997 154.357,100.156 C144.894,102.319 135.316,104.096 125.618,104.755 C106.992,106.022 88.524,102.332 71.717,94.181 C70.757,93.715 69.807,93.226 68.868,92.718 C67.589,92.078 66.335,91.388 65.125,90.626 C63.959,89.892 62.841,89.105 61.759,88.275 C59.025,86.306 56.456,84.114 54.118,81.676 C53.489,81.021 52.879,80.348 52.285,79.661 C50.917,82.187 49.316,84.611 47.433,86.906 C42.493,92.925 35.682,97.797 27.942,99.351 C21.228,100.699 14.083,98.134 8.126,95.221 C4.208,93.305 1.573,90.408 0.529,86.125 C-1.430,78.092 2.345,69.146 8.944,64.362 C12.235,61.976 16.243,60.457 20.293,60.086 C25.844,59.578 31.425,61.288 36.580,63.142 C38.937,63.989 41.235,64.948 43.457,66.048 C43.608,65.594 43.754,65.139 43.895,64.681 C46.621,55.786 47.491,46.470 48.051,37.225 C48.354,32.229 48.554,27.225 48.976,22.238 C49.339,17.936 49.623,13.462 50.894,9.311 C52.013,5.656 54.155,2.460 57.792,0.959 C61.842,-0.713 66.246,0.067 70.314,1.267 C75.936,2.926 81.838,5.108 85.972,9.442 C88.706,12.308 90.537,15.831 92.239,19.370 C92.312,19.523 90.640,19.285 90.484,19.250 ZM37.445,65.752 C37.032,65.479 36.451,65.117 35.953,64.817 C35.345,64.752 34.740,64.704 34.121,64.703 C25.787,64.693 18.149,69.637 14.681,77.193 C13.022,80.805 12.278,84.942 12.834,88.896 C13.091,90.729 13.620,92.586 14.552,94.197 C14.638,94.346 14.733,94.491 14.828,94.636 C21.076,93.725 26.797,90.348 31.390,85.964 C36.236,81.338 39.758,75.602 42.224,69.426 C40.705,68.101 39.121,66.856 37.445,65.752 ZM78.654,95.104 C78.412,94.988 77.994,94.766 78.654,95.104 Z"/>
</svg>